<svg width="60" height="54" viewBox="0 0 60 54" fill="none" xmlns="http://www.w3.org/2000/svg">
<path d="M53.1919 29.3182C53.1919 24.7333 51.8323 20.2513 49.2851 16.4391C46.7378 12.6268 43.1173 9.65555 38.8814 7.90097C34.6455 6.1464 29.9844 5.68732 25.4876 6.5818C20.9907 7.47627 16.8601 9.68413 13.6181 12.9262C10.376 16.1682 8.16819 20.2988 7.27372 24.7956C6.37924 29.2925 6.83832 33.9536 8.5929 38.1895C10.3475 42.4254 13.3187 46.0459 17.131 48.5932C20.9432 51.1404 25.4252 52.5 30.0101 52.5C36.1583 52.5 42.0547 50.0576 46.4021 45.7102C50.7496 41.3628 53.1919 35.4664 53.1919 29.3182ZM13.5003 3.12418C12.2838 2.0832 10.7374 1.50766 9.13633 1.5L8.73209 1.51159C5.03025 1.73472 2.18178 4.97727 2.19192 8.8892C2.19192 10.8032 2.86709 11.6957 3.76828 12.8345C3.82427 12.9076 3.89497 12.9683 3.97582 13.0124C4.05668 13.0566 4.14589 13.0833 4.23772 13.0909H4.36522C4.43701 13.0896 4.50754 13.0718 4.57136 13.0389C4.63517 13.006 4.69056 12.9589 4.73323 12.9011L13.538 4.25284C13.6132 4.17681 13.6719 4.08612 13.7105 3.98642C13.7492 3.88672 13.7669 3.78013 13.7625 3.6733C13.7589 3.56866 13.7337 3.4659 13.6886 3.37143C13.6435 3.27695 13.5794 3.19278 13.5003 3.12418V3.12418ZM46.4996 3.12418C47.7161 2.0832 49.2625 1.50766 50.8636 1.5L51.2678 1.51159C54.9697 1.73472 57.8182 4.97727 57.808 8.8892C57.808 10.8032 57.1328 11.6957 56.2316 12.8345C56.1755 12.9074 56.1048 12.9677 56.0239 13.0116C55.9431 13.0556 55.8539 13.0821 55.7622 13.0895H55.6347C55.5629 13.0882 55.4924 13.0704 55.4286 13.0375C55.3648 13.0046 55.3094 12.9574 55.2667 12.8997L46.462 4.25284C46.3868 4.17681 46.328 4.08612 46.2894 3.98642C46.2508 3.88672 46.2331 3.78013 46.2374 3.6733C46.241 3.56866 46.2662 3.4659 46.3113 3.37143C46.3564 3.27695 46.4205 3.19278 46.4996 3.12418V3.12418Z" stroke="#F89401" stroke-width="3" stroke-miterlimit="10"/>
<path d="M30.0102 13.0908V29.3181H18.4193M53.192 52.4999L47.3965 46.7045M6.82837 52.4999L12.6238 46.7045" stroke="#F89401" stroke-width="3" stroke-linecap="round" stroke-linejoin="round"/>
</svg>
