<svg width="60" height="60" viewBox="0 0 60 60" fill="none" xmlns="http://www.w3.org/2000/svg">
<path d="M12.1875 37.5H8.4375C7.91973 37.5 7.5 37.9197 7.5 38.4375V55.3125C7.5 55.8303 7.91973 56.25 8.4375 56.25H12.1875C12.7053 56.25 13.125 55.8303 13.125 55.3125V38.4375C13.125 37.9197 12.7053 37.5 12.1875 37.5Z" stroke="#F89401" stroke-width="3" stroke-linecap="round" stroke-linejoin="round"/>
<path d="M38.4375 26.25H34.6875C34.1697 26.25 33.75 26.6697 33.75 27.1875V55.3125C33.75 55.8303 34.1697 56.25 34.6875 56.25H38.4375C38.9553 56.25 39.375 55.8303 39.375 55.3125V27.1875C39.375 26.6697 38.9553 26.25 38.4375 26.25Z" stroke="#F89401" stroke-width="3" stroke-linecap="round" stroke-linejoin="round"/>
<path d="M51.5625 13.125H47.8125C47.2947 13.125 46.875 13.5447 46.875 14.0625V55.3125C46.875 55.8303 47.2947 56.25 47.8125 56.25H51.5625C52.0803 56.25 52.5 55.8303 52.5 55.3125V14.0625C52.5 13.5447 52.0803 13.125 51.5625 13.125Z" stroke="#F89401" stroke-width="3" stroke-linecap="round" stroke-linejoin="round"/>
<path d="M25.3125 3.75H21.5625C21.0447 3.75 20.625 4.16973 20.625 4.6875V55.3125C20.625 55.8303 21.0447 56.25 21.5625 56.25H25.3125C25.8303 56.25 26.25 55.8303 26.25 55.3125V4.6875C26.25 4.16973 25.8303 3.75 25.3125 3.75Z" stroke="#F89401" stroke-width="3" stroke-linecap="round" stroke-linejoin="round"/>
</svg>
