<svg width="32" height="32" viewBox="0 0 32 32" fill="none" xmlns="http://www.w3.org/2000/svg">
<path d="M29.7106 24.2969C28.594 23.1719 25.8898 21.5301 24.5778 20.8684C22.8692 20.0078 22.7286 19.9375 21.3856 20.9352C20.4898 21.6011 19.8943 22.1959 18.8459 21.9724C17.7976 21.7488 15.5194 20.4881 13.5247 18.4996C11.5299 16.5112 10.1961 14.167 9.97178 13.1221C9.74748 12.0773 10.3522 11.4888 11.0117 10.5909C11.9412 9.32524 11.8709 9.1143 11.0764 7.40571C10.4569 6.0768 8.76733 3.39789 7.63811 2.28696C6.43014 1.09375 6.43014 1.30469 5.65178 1.62813C5.0181 1.89474 4.41017 2.21883 3.83561 2.59633C2.71061 3.34375 2.08623 3.96461 1.64959 4.89766C1.21295 5.83071 1.01678 8.01813 3.2717 12.1145C5.52662 16.2109 7.10865 18.3056 10.3831 21.5709C13.6576 24.8362 16.1755 26.5919 19.8563 28.6563C24.4097 31.2065 26.1563 30.7094 27.0922 30.2735C28.028 29.8375 28.6517 29.2188 29.4005 28.0938C29.779 27.5202 30.1038 26.9129 30.3708 26.2797C30.695 25.5042 30.9059 25.5042 29.7106 24.2969Z" stroke="white" stroke-width="2" stroke-miterlimit="10"/>
</svg>
